<svg xmlns="http://www.w3.org/2000/svg" width="82.895" height="70.319" viewBox="0 0 82.895 70.319">
  <g id="group" transform="translate(0 -38.84)">
    <g id="Gruppe_54" data-name="Gruppe 54" transform="translate(64.518 76.803)">
      <g id="Gruppe_53" data-name="Gruppe 53">
        <path id="Pfad_32" data-name="Pfad 32" d="M404.9,273.32h-6.411a16.675,16.675,0,0,1,1.01,5.732v24.229a7.144,7.144,0,0,1-.412,2.393h10.6a7.188,7.188,0,0,0,7.18-7.18V285.286A11.98,11.98,0,0,0,404.9,273.32Z" transform="translate(-398.494 -273.32)" fill="#fff"/>
      </g>
    </g>
    <g id="Gruppe_56" data-name="Gruppe 56" transform="translate(0 76.804)">
      <g id="Gruppe_55" data-name="Gruppe 55">
        <path id="Pfad_33" data-name="Pfad 33" d="M17.367,279.053a16.675,16.675,0,0,1,1.01-5.732H11.966A11.98,11.98,0,0,0,0,285.287V298.5a7.188,7.188,0,0,0,7.18,7.18h10.6a7.147,7.147,0,0,1-.412-2.393Z" transform="translate(0 -273.321)" fill="#fff"/>
      </g>
    </g>
    <g id="Gruppe_58" data-name="Gruppe 58" transform="translate(22.153 70.569)">
      <g id="Gruppe_57" data-name="Gruppe 57">
        <path id="Pfad_34" data-name="Pfad 34" d="M163.451,234.815H148.8a11.98,11.98,0,0,0-11.966,11.966V271.01a2.393,2.393,0,0,0,2.393,2.393h33.8a2.393,2.393,0,0,0,2.393-2.393V246.781A11.98,11.98,0,0,0,163.451,234.815Z" transform="translate(-136.829 -234.815)" fill="#39a6c1"/>
      </g>
    </g>
    <g id="Gruppe_60" data-name="Gruppe 60" transform="translate(27.057 38.84)">
      <g id="Gruppe_59" data-name="Gruppe 59">
        <path id="Pfad_35" data-name="Pfad 35" d="M181.505,38.84A14.389,14.389,0,1,0,195.9,53.231,14.407,14.407,0,0,0,181.505,38.84Z" transform="translate(-167.114 -38.84)" fill="#39a6c1"/>
      </g>
    </g>
    <g id="Gruppe_62" data-name="Gruppe 62" transform="translate(5.415 52.254)">
      <g id="Gruppe_61" data-name="Gruppe 61">
        <path id="Pfad_36" data-name="Pfad 36" d="M44.206,121.689a10.757,10.757,0,1,0,10.763,10.763A10.775,10.775,0,0,0,44.206,121.689Z" transform="translate(-33.443 -121.689)" fill="#fff"/>
      </g>
    </g>
    <g id="Gruppe_64" data-name="Gruppe 64" transform="translate(55.955 52.254)">
      <g id="Gruppe_63" data-name="Gruppe 63">
        <path id="Pfad_37" data-name="Pfad 37" d="M356.37,121.689a10.763,10.763,0,1,0,10.763,10.763A10.775,10.775,0,0,0,356.37,121.689Z" transform="translate(-345.607 -121.689)" fill="#fff"/>
      </g>
    </g>
  </g>
</svg>
