<svg xmlns="http://www.w3.org/2000/svg" width="84.362" height="77.332" viewBox="0 0 84.362 77.332">
  <g id="cloud-computing" transform="translate(0 -21.334)">
    <g id="Gruppe_52" data-name="Gruppe 52" transform="translate(0 21.334)">
      <g id="Gruppe_51" data-name="Gruppe 51">
        <path id="Pfad_30" data-name="Pfad 30" d="M192.775,295.938l-4.545,4.545V280.848a3.515,3.515,0,1,0-7.03,0v19.635l-4.545-4.545a3.515,3.515,0,1,0-4.97,4.97l10.542,10.542a3.482,3.482,0,0,0,1.146.763,3.465,3.465,0,0,0,2.685,0,3.482,3.482,0,0,0,1.146-.763l10.542-10.542a3.515,3.515,0,1,0-4.971-4.97Z" transform="translate(-142.535 -235.152)" fill="#fff"/>
        <path id="Pfad_31" data-name="Pfad 31" d="M73.617,46.727C72.01,34.635,60.938,21.334,47.623,21.334A26.07,26.07,0,0,0,28.377,30.47,14.188,14.188,0,0,0,9.35,43.064,20.753,20.753,0,0,0,0,60,24.936,24.936,0,0,0,3.8,72.707a18.055,18.055,0,0,0,15.308,8.384H21.73a10.428,10.428,0,0,1,9.906-7.03V67.03a10.545,10.545,0,1,1,21.091,0v7.03a10.428,10.428,0,0,1,9.906,7.03h3.68c9.122,0,17-6.791,17.934-15.463a19.067,19.067,0,0,0,.116-2.113C84.362,55.445,80.229,49.128,73.617,46.727Z" transform="translate(0 -21.334)" fill="#39a6c1"/>
      </g>
    </g>
  </g>
</svg>
