<svg xmlns="http://www.w3.org/2000/svg" width="71.092" height="83.887" viewBox="0 0 71.092 83.887">
  <g id="shopping-bag_1_" data-name="shopping-bag (1)" transform="translate(-15.359)">
    <path id="Pfad_38" data-name="Pfad 38" d="M94.428,21.327H73.1a1.422,1.422,0,0,1-1.422-1.422v-7.82a12.085,12.085,0,0,1,24.171,0v7.82A1.422,1.422,0,0,1,94.428,21.327ZM74.522,18.483H93.006v-6.4a9.242,9.242,0,1,0-18.483,0Z" transform="translate(-32.86 0)" fill="#fff"/>
    <path id="Pfad_39" data-name="Pfad 39" d="M88.158,54.9H25.6l4.265-7.109H83.892Z" transform="translate(-5.974 -27.882)" fill="#fff"/>
    <path id="Pfad_40" data-name="Pfad 40" d="M86.166,54.325H23.606a1.422,1.422,0,0,1-1.219-2.154l4.265-7.109a1.42,1.42,0,0,1,1.219-.69H81.9a1.42,1.42,0,0,1,1.219.69l4.265,7.109a1.422,1.422,0,0,1-1.219,2.154ZM26.117,51.482H83.655L81.1,47.216H28.677Z" transform="translate(-3.982 -25.889)" fill="#038bac"/>
    <path id="Pfad_49" data-name="Pfad 49" d="M0,0H19.9V21.326H0Z" transform="translate(70.252 34.681) rotate(-166.838)" fill="#fff"/>
    <path id="Pfad_41" data-name="Pfad 41" d="M118,47.267a1.438,1.438,0,0,1-.326-.037L98.293,42.7a1.422,1.422,0,0,1-1.061-1.708l4.858-20.766a1.419,1.419,0,0,1,1.708-1.061l19.382,4.533a1.422,1.422,0,0,1,1.061,1.708l-4.858,20.766A1.421,1.421,0,0,1,118,47.267Zm-17.676-7.016,16.614,3.886,4.209-18-16.614-3.886Z" transform="translate(-47.748 -11.157)" fill="#39a6c1"/>
    <rect id="Rechteck_63" data-name="Rechteck 63" width="23.946" height="25.657" transform="translate(51.962 31.22) rotate(173.258)" fill="#fff"/>
    <path id="Pfad_42" data-name="Pfad 42" d="M39.928,41.508a1.422,1.422,0,0,1-1.41-1.255L35.506,14.773a1.423,1.423,0,0,1,1.245-1.579l23.781-2.811a1.423,1.423,0,0,1,1.579,1.245l3.011,25.48a1.423,1.423,0,0,1-1.245,1.579L40.1,41.5A1.551,1.551,0,0,1,39.928,41.508ZM38.5,15.852l2.678,22.655,20.957-2.476L59.453,13.375Z" transform="translate(-11.749 -6.052)" fill="#39a6c1"/>
    <rect id="Rechteck_64" data-name="Rechteck 64" width="23.56" height="24.794" transform="matrix(-0.972, 0.234, -0.234, -0.972, 64.496, 39.177)" fill="#038bac"/>
    <path id="Pfad_43" data-name="Pfad 43" d="M68.214,65.227a1.422,1.422,0,0,1-1.381-1.089l-5.8-24.106a1.422,1.422,0,0,1,1.05-1.715l22.9-5.508a1.42,1.42,0,0,1,1.715,1.049l5.8,24.107a1.422,1.422,0,0,1-1.05,1.715l-22.9,5.508A1.39,1.39,0,0,1,68.214,65.227ZM64.133,40.749l5.132,21.342L89.4,57.249,84.273,35.907Z" transform="translate(-26.628 -19.12)" fill="#038bac"/>
    <path id="Pfad_44" data-name="Pfad 44" d="M87.019,120.3H18.772l2.843-55.451h62.56Z" transform="translate(-1.992 -37.839)" fill="#39a6c1"/>
    <path id="Pfad_45" data-name="Pfad 45" d="M85.027,119.735H16.78a1.421,1.421,0,0,1-1.42-1.495L18.2,62.79a1.422,1.422,0,0,1,1.42-1.349h62.56A1.422,1.422,0,0,1,83.6,62.79l2.844,55.451a1.421,1.421,0,0,1-1.421,1.495Zm-66.751-2.844H83.531l-2.7-52.607H20.975Z" transform="translate(0 -35.848)" fill="#038bac"/>
    <circle id="Ellipse_7" data-name="Ellipse 7" cx="2.844" cy="2.844" r="2.844" transform="translate(58.724 32.701)" fill="#39a6c1"/>
    <path id="Pfad_46" data-name="Pfad 46" d="M120.317,83.624a4.265,4.265,0,1,1,4.265-4.265A4.27,4.27,0,0,1,120.317,83.624Zm0-5.687a1.422,1.422,0,1,0,1.422,1.422A1.423,1.423,0,0,0,120.317,77.937Z" transform="translate(-58.75 -43.813)" fill="#fff"/>
    <circle id="Ellipse_8" data-name="Ellipse 8" cx="2.844" cy="2.844" r="2.844" transform="translate(37.397 32.701)" fill="#39a6c1"/>
    <path id="Pfad_47" data-name="Pfad 47" d="M69.117,83.624a4.265,4.265,0,1,1,4.265-4.265A4.27,4.27,0,0,1,69.117,83.624Zm0-5.687a1.422,1.422,0,1,0,1.422,1.422A1.423,1.423,0,0,0,69.117,77.937Z" transform="translate(-28.877 -43.813)" fill="#fff"/>
    <path id="Pfad_48" data-name="Pfad 48" d="M83.764,106.661A12.1,12.1,0,0,1,71.679,94.575v-7.82a1.422,1.422,0,0,1,2.843,0v7.82a9.242,9.242,0,1,0,18.484,0V87.3a1.4,1.4,0,0,1-.11-.548,1.422,1.422,0,0,1,1.422-1.422h.11a1.422,1.422,0,0,1,1.422,1.422v7.82A12.1,12.1,0,0,1,83.764,106.661Z" transform="translate(-32.86 -49.788)" fill="#fff"/>
  </g>
</svg>
