<svg xmlns="http://www.w3.org/2000/svg" width="126.791" height="150" viewBox="0 0 126.791 150">
  <g id="gold-medal" transform="translate(-39.592)">
    <path id="Pfad_22" data-name="Pfad 22" d="M72.35,221.248,39.592,282.964l29.747-2.748,14.4,26.178,32.758-61.716Z" transform="translate(0 -156.399)" fill="#39a6c1"/>
    <g id="Gruppe_46" data-name="Gruppe 46" transform="translate(66.654 64.849)">
      <path id="Pfad_23" data-name="Pfad 23" d="M141.368,312.585a4.182,4.182,0,0,0-1.965-5.356l-1.885-1a4.031,4.031,0,0,1,3.878-7.067l5.327,2.828a3.362,3.362,0,0,0,4.558-1.416l.131-.253a3.18,3.18,0,0,0-1.224-4.483l-15.936-8.456a4.2,4.2,0,0,1-1.988-5.36,4.041,4.041,0,0,1,5.553-1.857l14.782,7.846a3.4,3.4,0,0,0,4.582-1.407l.084-.216.023-.047a3.54,3.54,0,0,0-1.459-4.816l-8.291-4.4a4.2,4.2,0,0,1-1.974-5.384,4.058,4.058,0,0,1,5.553-1.857l9.159,4.863a3.42,3.42,0,0,0,4.643-1.576,201.482,201.482,0,0,0,.047-.094,3.415,3.415,0,0,0-1.3-4.727l-9.881-5.243a4.186,4.186,0,0,1-1.965-5.346,4.041,4.041,0,0,1,5.553-1.857l24.377,12.939-32.758,61.716-9.028-16.409A3.838,3.838,0,0,0,141.368,312.585Z" transform="translate(-131.92 -245.409)" fill="#39a6c1"/>
      <path id="Pfad_24" data-name="Pfad 24" d="M253.944,221.248,286.7,282.964l-29.747-2.748-14.4,26.178L209.8,244.678Z" transform="translate(-186.973 -221.248)" fill="#39a6c1"/>
    </g>
    <path id="Pfad_25" data-name="Pfad 25" d="M250.2,312.6a4.182,4.182,0,0,1,1.965-5.356l1.885-1a4.031,4.031,0,0,0-3.878-7.067L244.848,302a3.362,3.362,0,0,1-4.558-1.416l-.131-.253a3.179,3.179,0,0,1,1.224-4.483l15.94-8.46a4.2,4.2,0,0,0,1.988-5.36,4.041,4.041,0,0,0-5.553-1.857l-14.782,7.846a3.4,3.4,0,0,1-4.582-1.407l-.084-.216-.023-.047a3.54,3.54,0,0,1,1.459-4.816l8.291-4.4a4.2,4.2,0,0,0,1.974-5.384,4.058,4.058,0,0,0-5.553-1.857l-9.168,4.873a3.42,3.42,0,0,1-4.643-1.576,201.351,201.351,0,0,1-.047-.094,3.415,3.415,0,0,1,1.3-4.727l9.881-5.243a4.186,4.186,0,0,0,1.965-5.346,4.041,4.041,0,0,0-5.553-1.857l-24.377,12.939,32.758,61.716,9.028-16.409A3.9,3.9,0,0,1,250.2,312.6Z" transform="translate(-120.33 -180.572)" fill="#39a6c1"/>
    <circle id="Ellipse_6" data-name="Ellipse 6" cx="54.733" cy="54.733" r="54.733" transform="translate(48.254 0)" fill="#fff"/>
    <path id="Pfad_26" data-name="Pfad 26" d="M131.686,58.362H97a4.93,4.93,0,0,1-4.91-4.91l.038-.338v-.075a5.127,5.127,0,0,1,5.135-5.173H121.3a6.08,6.08,0,0,0,6.186-5.548,5.878,5.878,0,0,0-5.848-6.148H96.175A4.957,4.957,0,0,1,91.3,31v-.15a4.957,4.957,0,0,1,4.873-5.173h26.647a6.067,6.067,0,0,0,6.148-5.51,5.856,5.856,0,0,0-5.848-6.148H103.609a54.727,54.727,0,0,0,0,101.237h24.776a6.067,6.067,0,0,0,6.148-5.51,5.852,5.852,0,0,0-5.848-6.144l-28.185,0a5.832,5.832,0,0,1-5.825-6.148,6.057,6.057,0,0,1,6.153-5.52h10.927a5.84,5.84,0,0,0-.169-11.677H95.026a4.871,4.871,0,0,1-4.873-4.91v-.413a4.612,4.612,0,0,1,4.61-4.91h36.584a6.077,6.077,0,0,0,6.186-5.51A5.858,5.858,0,0,0,131.686,58.362Z" transform="translate(-21.275 -9.908)" fill="#fff"/>
    <path id="Pfad_27" data-name="Pfad 27" d="M161.654,131.575a39.068,39.068,0,1,1,39.07-39.065A39.115,39.115,0,0,1,161.654,131.575Z" transform="translate(-58.667 -37.776)" fill="#f2eeee"/>
    <g id="Gruppe_47" data-name="Gruppe 47" transform="translate(51.819 25.432)">
      <path id="Pfad_28" data-name="Pfad 28" d="M155.293,131.536a5.058,5.058,0,0,0-1.262,1.927,5.35,5.35,0,0,0-.417,2.289c.056.839.4,1.763.446,2.593.009.108-.019.211-.014.314a39.208,39.208,0,0,1-4.033-6.589,3.832,3.832,0,0,1,.267-1.294,14.031,14.031,0,0,1,1.215-1.8,6.785,6.785,0,0,0,.694-2.035,8.238,8.238,0,0,0,.183-2.326c-.066-.042-.136-.084-.2-.131a4.744,4.744,0,0,0-1.6,1.463,4.876,4.876,0,0,0-.882,1.979c-.122.774,0,1.688-.136,2.443a4.192,4.192,0,0,1-.127.413,39.652,39.652,0,0,1-2.359-7.1,3.834,3.834,0,0,1,.586-1.4,12.532,12.532,0,0,1,1.519-1.341,5.757,5.757,0,0,0,1.051-1.707,7.086,7.086,0,0,0,.6-2.124l-.169-.169a4.271,4.271,0,0,0-1.8.971,4.355,4.355,0,0,0-1.219,1.613c-.267.68-.328,1.552-.61,2.209a3.38,3.38,0,0,1-.277.474,39.975,39.975,0,0,1-.713-7.283A3.756,3.756,0,0,1,147,113.48a11.648,11.648,0,0,1,1.684-.868,4.957,4.957,0,0,0,1.3-1.346,6.45,6.45,0,0,0,.947-1.876c-.042-.07-.084-.136-.127-.206a4.243,4.243,0,0,0-3.3,1.7c-.38.577-.6,1.379-.985,1.923a2.979,2.979,0,0,1-.455.483,40.7,40.7,0,0,1,.886-7.124c.023-.038.047-.07.07-.108a3.665,3.665,0,0,1,1.332-1.346,10.549,10.549,0,0,1,1.721-.4,4.156,4.156,0,0,0,1.459-.975,5.99,5.99,0,0,0,1.229-1.595c-.028-.075-.052-.155-.08-.234a3.408,3.408,0,0,0-1.806.009,3.354,3.354,0,0,0-1.562.825c-.46.464-.816,1.182-1.28,1.594a2.8,2.8,0,0,1-.652.441,40.307,40.307,0,0,1,2.509-6.861c.019.028.042.052.061.08.089-.094.183-.183.272-.277a3.294,3.294,0,0,1,1.487-.971,9.607,9.607,0,0,1,1.641.033,3.607,3.607,0,0,0,1.529-.61,5.691,5.691,0,0,0,1.458-1.294c0-.084-.014-.169-.019-.249a2.962,2.962,0,0,0-1.641-.413,2.925,2.925,0,0,0-1.595.441c-.516.347-.994.961-1.5,1.252a2.386,2.386,0,0,1-.774.3c.009-.052.009-.1.019-.15a40.194,40.194,0,0,1,6.519-8.9,40.9,40.9,0,0,0-6.378,7.916c0-.084.042-.183.042-.267a10.855,10.855,0,0,0,.014-1.787,5.774,5.774,0,0,0-1.318-3.119l-.267.1a8.107,8.107,0,0,0-1.116,4.146,6.319,6.319,0,0,0,.356,1.688,4.339,4.339,0,0,0,.76,1.477c.047.066.094.127.145.192a40.35,40.35,0,0,0-2.528,5.909c0-.019,0-.042,0-.066a16.551,16.551,0,0,0-.469-1.843,6.9,6.9,0,0,0-2.082-3.006c-.08.052-.155.1-.234.155a8.755,8.755,0,0,0-.042,4.526,7.119,7.119,0,0,0,.793,1.684,5.1,5.1,0,0,0,1.14,1.388.269.269,0,0,1,.038.033A40.926,40.926,0,0,0,145.107,112a15.233,15.233,0,0,0-.9-1.745,8.173,8.173,0,0,0-2.837-2.734c-.066.066-.131.131-.2.2a9.612,9.612,0,0,0,1.1,4.68,8.182,8.182,0,0,0,1.233,1.585,5.7,5.7,0,0,0,1.393,1.116,41.446,41.446,0,0,0,.291,6.1,17.549,17.549,0,0,0-1.271-1.51,9.8,9.8,0,0,0-3.559-2.293c-.052.08-.1.159-.15.239a10.494,10.494,0,0,0,2.307,4.582,9,9,0,0,0,1.665,1.383,6.03,6.03,0,0,0,1.529.779,41.216,41.216,0,0,0,1.641,5.857c-.53-.422-1.05-.854-1.6-1.215a11.374,11.374,0,0,0-4.235-1.674c-.033.089-.061.178-.094.267a11.616,11.616,0,0,0,3.536,4.221,10.2,10.2,0,0,0,2.078,1.079,6.68,6.68,0,0,0,1.59.436,40.866,40.866,0,0,0,2.973,5.384c-.628-.3-1.252-.619-1.881-.854a13.655,13.655,0,0,0-4.826-.891c-.009.1-.019.192-.028.291a12.989,12.989,0,0,0,4.765,3.578,11.769,11.769,0,0,0,2.457.671,7.574,7.574,0,0,0,1.59.1,42.19,42.19,0,0,0,2.847,3.264l1.609-1.609a40.475,40.475,0,0,1-3.255-3.541,4.216,4.216,0,0,1-.014-1.163,14.053,14.053,0,0,1,.76-2.19,8.157,8.157,0,0,0,.211-2.3,9.522,9.522,0,0,0-.328-2.462A1.83,1.83,0,0,0,155.293,131.536Z" transform="translate(-133.216 -86.768)" fill="#39a6c1"/>
      <path id="Pfad_29" data-name="Pfad 29" d="M313.261,131.558a5.057,5.057,0,0,1,1.262,1.927,5.351,5.351,0,0,1,.417,2.289c-.056.839-.4,1.763-.446,2.593-.009.108.019.211.014.314a39.205,39.205,0,0,0,4.033-6.589,3.833,3.833,0,0,0-.267-1.294,14.031,14.031,0,0,0-1.215-1.8,6.785,6.785,0,0,1-.694-2.035,8.238,8.238,0,0,1-.183-2.326c.066-.042.136-.084.2-.131a4.744,4.744,0,0,1,1.6,1.463,4.876,4.876,0,0,1,.882,1.979c.122.774,0,1.688.136,2.443a4.193,4.193,0,0,0,.127.413,39.648,39.648,0,0,0,2.359-7.1,3.834,3.834,0,0,0-.586-1.4,12.533,12.533,0,0,0-1.519-1.341,5.756,5.756,0,0,1-1.05-1.707,7.086,7.086,0,0,1-.6-2.124l.169-.169a4.272,4.272,0,0,1,1.8.971,4.355,4.355,0,0,1,1.219,1.613c.267.68.328,1.552.61,2.209a3.383,3.383,0,0,0,.277.474,39.975,39.975,0,0,0,.713-7.283,3.756,3.756,0,0,0-.961-1.449,11.653,11.653,0,0,0-1.684-.868,4.957,4.957,0,0,1-1.3-1.346,6.45,6.45,0,0,1-.947-1.876c.042-.07.084-.136.127-.206a4.243,4.243,0,0,1,3.3,1.7c.38.577.6,1.379.985,1.923a2.977,2.977,0,0,0,.455.483,40.7,40.7,0,0,0-.886-7.124c-.023-.038-.047-.07-.07-.108a3.665,3.665,0,0,0-1.332-1.346,10.552,10.552,0,0,0-1.721-.4,4.156,4.156,0,0,1-1.459-.975,5.988,5.988,0,0,1-1.229-1.595c.028-.075.052-.155.08-.234a3.408,3.408,0,0,1,1.806.009,3.354,3.354,0,0,1,1.562.825c.46.464.816,1.182,1.28,1.594a2.8,2.8,0,0,0,.652.441,39.194,39.194,0,0,0-2.5-6.856c-.019.028-.042.052-.061.08-.089-.094-.183-.183-.272-.277a3.294,3.294,0,0,0-1.487-.971,9.608,9.608,0,0,0-1.641.033,3.607,3.607,0,0,1-1.529-.61,5.691,5.691,0,0,1-1.459-1.294c0-.084.014-.169.019-.249a2.962,2.962,0,0,1,1.641-.413,2.925,2.925,0,0,1,1.594.441c.516.347.994.961,1.5,1.252a2.386,2.386,0,0,0,.774.3c-.009-.047-.014-.1-.019-.145a40.194,40.194,0,0,0-6.519-8.9,40.9,40.9,0,0,1,6.378,7.916c0-.084-.042-.183-.042-.267a10.852,10.852,0,0,1-.014-1.787,5.774,5.774,0,0,1,1.318-3.119l.267.1a8.106,8.106,0,0,1,1.116,4.146,6.317,6.317,0,0,1-.356,1.688,4.339,4.339,0,0,1-.76,1.477c-.047.066-.094.127-.145.192a40.35,40.35,0,0,1,2.528,5.909c0-.019,0-.042,0-.066a14.452,14.452,0,0,1,.46-1.852,6.9,6.9,0,0,1,2.082-3.006c.08.052.159.1.239.15a8.811,8.811,0,0,1,.047,4.526,7.12,7.12,0,0,1-.793,1.684,5.1,5.1,0,0,1-1.14,1.388.27.27,0,0,0-.038.033,40.918,40.918,0,0,1,1.088,6.106,15.248,15.248,0,0,1,.9-1.745,8.174,8.174,0,0,1,2.837-2.734l.2.2a9.612,9.612,0,0,1-1.1,4.68A8.182,8.182,0,0,1,325.051,114a5.7,5.7,0,0,1-1.393,1.116,41.45,41.45,0,0,1-.291,6.1,17.545,17.545,0,0,1,1.271-1.51,9.794,9.794,0,0,1,3.559-2.293c.052.08.1.159.15.239a10.494,10.494,0,0,1-2.307,4.582,8.995,8.995,0,0,1-1.665,1.383,6.03,6.03,0,0,1-1.529.779,41.217,41.217,0,0,1-1.641,5.857c.53-.422,1.051-.854,1.6-1.215a11.374,11.374,0,0,1,4.235-1.674c.033.089.061.178.094.267a11.617,11.617,0,0,1-3.536,4.221,10.2,10.2,0,0,1-2.078,1.079,6.682,6.682,0,0,1-1.59.436,40.871,40.871,0,0,1-2.973,5.384c.628-.3,1.252-.619,1.881-.854a13.656,13.656,0,0,1,4.826-.891c.009.1.019.192.028.291a12.989,12.989,0,0,1-4.765,3.578,11.769,11.769,0,0,1-2.457.671,7.576,7.576,0,0,1-1.59.1,42.182,42.182,0,0,1-2.847,3.264l-1.609-1.609a40.461,40.461,0,0,0,3.255-3.541,4.215,4.215,0,0,0,.014-1.163,14.053,14.053,0,0,0-.76-2.19,8.16,8.16,0,0,1-.211-2.3,9.524,9.524,0,0,1,.328-2.462C313.111,131.615,313.186,131.587,313.261,131.558Z" transform="translate(-233.923 -86.791)" fill="#39a6c1"/>
    </g>
  </g>
</svg>
